

Format : AVI 
Format/Info : Audio Video Interleave 
File size : 747 MiB 
Duration : 1h 43mn 
Overall bit rate : 1 014 Kbps 


Video 
ID : 0 
Format : MPEG-4 Visual 
Format profile : Advanced Simple@L5 
Format settings, BVOP : Yes 
Format settings, QPel : No 
Format settings, GMC : No warppoints 
Format settings, Matrix : Default (H.263) 
Muxing mode : Packed bitstream 
Codec ID : XVID 
Codec ID/Hint : XviD 
Duration : 1h 43mn 
Bit rate : 870 Kbps 
Width : 650 pixels 
Height : 276 pixels 
Display aspect ratio : 2.35:1 
Frame rate : 23.976 fps 
Resolution : 8 bits 
Colorimetry : 4:2:0 
Scan type : Progressive 
Bits/(Pixel*Frame) : 0.202 
Stream size : 641 MiB (86%) 


Audio 
ID : 1 
Format : MPEG Audio 
Format version : Version 1 
Format profile : Layer 3 
Mode : Joint stereo 
Codec ID : 55 
Codec ID/Hint : MP3 
Duration : 1h 43mn 
Bit rate mode : Variable 
Bit rate : 131 Kbps 
Nominal bit rate : 128 Kbps 
Channel(s) : 2 channels 
Sampling rate : 48.0 KHz 
Stream size : 96.4 MiB (13%) 
Alignment : Aligned on interleaves 
Interleave, duration : 24 ms (0.58 video frame) 
Interleave, preload duration : 140 ms 
Writing library : LAME3.90. 

Bought to you By

UniversalAbsurdity



